<svg xmlns="http://www.w3.org/2000/svg" xmlns:xlink="http://www.w3.org/1999/xlink" width="130" height="130" viewBox="0 0 130 130"><defs><style>.a{fill:#c9a269;}.b{clip-path:url(#a);}</style><clipPath id="a"><circle class="a" cx="65" cy="65" r="65"/></clipPath></defs><g class="b"><path class="a" d="M62.14,58.032l-1.786-2.376a2.746,2.746,0,0,0-4.389-3.242l-3.64-.728a2.74,2.74,0,0,0-5.275.031l-2.727.681A2.753,2.753,0,0,0,39.577,54.3a2.725,2.725,0,0,0,.179.954L38.22,56.537a2.746,2.746,0,0,0-3.38,4.277L33.459,63.57a2.751,2.751,0,1,0,2.662,4.5l1.706.684a2.73,2.73,0,0,0,.247.629l-1.76,2.441a2.756,2.756,0,1,0,1.955,5.047l2.278,1.82A2.751,2.751,0,1,0,45.3,76.378l3.058-4.644a2.665,2.665,0,0,0,3.008-1.794h4.94a2.753,2.753,0,1,0,4.532-2.883l1.474-3.64a2.751,2.751,0,0,0-.156-5.382ZM36.813,75.452a.754.754,0,1,1,.01,0ZM57.98,53.383a.92.92,0,1,1-.92.92A.92.92,0,0,1,57.98,53.383Zm-.767,3.557a2.6,2.6,0,0,0,1.763-.075l1.175,1.56a2.761,2.761,0,0,0-1.087,1.388h-4.02a2.725,2.725,0,0,0-.671-1.056Zm-4.976-3.4,3,.6c0,.055-.016.107-.016.161a2.72,2.72,0,0,0,.426,1.461l-2.886,1.851-1.669-2.782a2.748,2.748,0,0,0,1.149-1.29Zm1.139,7.2a.92.92,0,1,1-.92-.92.92.92,0,0,1,.92.92Zm-3.679-9.2a.92.92,0,1,1-.918.92.92.92,0,0,1,.918-.92Zm1.37,6.828a2.74,2.74,0,0,0-1.2,1.448H47.689a2.772,2.772,0,0,0-.936-1.274l2.761-2.761Zm-8.726-4.989a.92.92,0,1,1-.92.92.92.92,0,0,1,.92-.92Zm-1.4,3.3a2.73,2.73,0,0,0,1.4.393A2.761,2.761,0,0,0,45.1,54.314c0-.068-.016-.13-.021-.2l2.1-.52a2.748,2.748,0,0,0,.863,1.076L44.676,58.04a2.764,2.764,0,0,0-2.116,1.638l-3-.6c0-.055.018-.107.018-.161a2.717,2.717,0,0,0-.182-.954Zm5.078,4.061a.92.92,0,1,1-.92-.92A.92.92,0,0,1,46.02,60.741Zm-7.2.049,3.64.731a2.766,2.766,0,0,0,.85,1.3l-2.98,2.384-1.7-4.251A1.363,1.363,0,0,0,38.823,60.791Zm2.6,7.309a.918.918,0,1,1-1.284-.842h.026a.853.853,0,0,1,.33-.068.918.918,0,0,1,.926.91Zm-4.6-10.119a.918.918,0,0,1,.367,1.763h-.026a.866.866,0,0,1-.333.068.92.92,0,0,1,0-1.838Zm-1.906,8.606h0v.026a.918.918,0,1,1,.078-.367.842.842,0,0,1-.078.343Zm3.133.273-1.238-.494v-.109a2.756,2.756,0,0,0-1.446-2.41l1.113-2.22a2.828,2.828,0,0,0,.333.034h.107l1.768,4.381a2.774,2.774,0,0,0-.637.822Zm5.2,12.272a.756.756,0,1,1,.01,0Zm.421-3.64a2.647,2.647,0,0,0-2.709,1.178l-1.56-1.24a2.8,2.8,0,0,0,.164-.9,2.756,2.756,0,0,0-1.279-2.319l1.134-1.573a2.753,2.753,0,0,0,3.6-1.466l3.1.621a2.72,2.72,0,0,0,.59,1.056Zm2.558-7.558-3.1-.621a2.74,2.74,0,0,0-.85-1.3l2.569-2.057,1.914,3.19a2.722,2.722,0,0,0-.517.8Zm2.54,2a.382.382,0,1,1,.01.01Zm.208-3.658c-.07,0-.138-.021-.208-.021a3.038,3.038,0,0,0-.377.039L46.48,63.1a2.764,2.764,0,0,0,1.2-1.448h2.179a2.733,2.733,0,0,0,.7,1.076Zm7.319,1.82h-4.94a2.759,2.759,0,0,0-.7-1.079l1.539-3.45,4.529,3.778a2.67,2.67,0,0,0-.419.759Zm2.587,1.838a.383.383,0,1,1,.01.01Zm.26-3.653c-.088,0-.177-.026-.26-.026a2.741,2.741,0,0,0-.52.052L54.2,62.842a2.743,2.743,0,0,0,.829-1.188h4.02A2.761,2.761,0,0,0,60.4,63.185Zm2.493-4.623a.7.7,0,1,1,.018.008Z"/><path class="a" d="M65,0a65,65,0,1,0,65,65A65,65,0,0,0,65,0ZM91.031,35.578a2.738,2.738,0,1,1-2.738,2.738A2.738,2.738,0,0,1,91.031,35.578ZM78.715,26a2.735,2.735,0,1,1-1.937.8,2.738,2.738,0,0,1,1.937-.8ZM72.324,50.632h4.267a.463.463,0,0,0,.322-.133l8.723-8.726a.455.455,0,0,1,.642,0l1.3,1.3a.452.452,0,0,1,0,.64L78.45,52.84a1.82,1.82,0,0,1-1.287.52H72.324a.452.452,0,0,1-.452-.452v-1.82a.452.452,0,0,1,.452-.455Zm-3.188-9.581a2.738,2.738,0,1,1,2.735-2.735,2.738,2.738,0,0,1-2.735,2.735ZM51.345,37.136a1.82,1.82,0,0,1,.536-1.3l7.946-7.943a1.82,1.82,0,0,1,1.3-.536H71.432a.452.452,0,0,1,.452.452v1.82a.452.452,0,0,1-.452.452H61.68a.447.447,0,0,0-.32.133l-7.145,7.142a.452.452,0,0,0-.135.343v4.267a.452.452,0,0,1-.452.452h-1.82a.452.452,0,0,1-.455-.452Zm14.331,6.573-2.1,2.1a.452.452,0,0,1-.64,0l-1.3-1.3a.452.452,0,0,1,0-.64l2.1-2.1a.452.452,0,0,1,.64,0l1.3,1.3a.452.452,0,0,1,0,.64ZM80.621,80.738H78.715a1.368,1.368,0,0,0-1.37,1.368v9.578a4.1,4.1,0,0,1-4.1,4.105H65.031a1.37,1.37,0,0,0-1.37,1.368V104H36.293V86.772a1.36,1.36,0,0,0-.458-1.019,23.14,23.14,0,0,1-7.68-19.193A23.481,23.481,0,0,1,48.716,45.3a24.7,24.7,0,0,1,2.629-.146v1.04a.455.455,0,0,0,.455.455h1.82a.452.452,0,0,0,.452-.455v-.871A23,23,0,0,1,59.03,46.47l-.58.59a.455.455,0,0,0,0,.642l1.3,1.3a.455.455,0,0,0,.642,0l1.368-1.368a23.239,23.239,0,0,1,4.54,3H63.843a.45.45,0,0,0-.452.45v1.836a.45.45,0,0,0,.452.45h5.2a23.278,23.278,0,0,1,3.5,5.476H66.7a.452.452,0,0,0-.452.452v1.82a.452.452,0,0,0,.452.452h6.861a23.231,23.231,0,0,1,1.04,6.843,1.365,1.365,0,0,0,.3.855l7.02,8.759a1.661,1.661,0,0,1-1.3,2.712ZM96.5,61.126a.452.452,0,0,1-.452.452H76.44a.452.452,0,0,1-.452-.452v-1.82a.452.452,0,0,1,.452-.452H96.062a.452.452,0,0,1,.452.452Zm6.841,1.82a2.738,2.738,0,1,1,2.735-2.735,2.738,2.738,0,0,1-2.735,2.735Z"/></g></svg>